<mxfile host="app.diagrams.net" modified="2020-12-09T12:51:01.228Z" agent="5.0 (Windows NT 10.0; Win64; x64) AppleWebKit/537.36 (KHTML, like Gecko) Chrome/86.0.4240.198 Safari/537.36" etag="sogvauTzkkLbefjEpu_p" version="14.0.0" type="github">
  <diagram id="kgpKYQtTHZ0yAKxKKP6v" name="Page-1">
    <mxGraphModel dx="1038" dy="580" grid="1" gridSize="10" guides="1" tooltips="1" connect="1" arrows="1" fold="1" page="1" pageScale="1" pageWidth="850" pageHeight="1100" math="0" shadow="0">
      <root>
        <mxCell id="0" />
        <mxCell id="1" parent="0" />
        <mxCell id="Ac6H3vPhmwQ5J9NAEgWj-42" value="Hiển thị dữ liệu thống kê" style="html=1;verticalAlign=bottom;endArrow=block;" parent="1" source="Ac6H3vPhmwQ5J9NAEgWj-12" edge="1">
          <mxGeometry x="-0.0783" y="-10" width="80" relative="1" as="geometry">
            <mxPoint x="170" y="360" as="sourcePoint" />
            <mxPoint x="110" y="350" as="targetPoint" />
            <Array as="points">
              <mxPoint x="190" y="350" />
            </Array>
            <mxPoint as="offset" />
          </mxGeometry>
        </mxCell>
        <mxCell id="Ac6H3vPhmwQ5J9NAEgWj-3" value="" style="shape=umlLifeline;participant=umlActor;perimeter=lifelinePerimeter;whiteSpace=wrap;html=1;container=1;collapsible=0;recursiveResize=0;verticalAlign=top;spacingTop=36;outlineConnect=0;size=40;" parent="1" vertex="1">
          <mxGeometry x="80" y="80" width="35" height="470" as="geometry" />
        </mxCell>
        <mxCell id="Ac6H3vPhmwQ5J9NAEgWj-18" value="Quản trị viên&lt;br&gt;&lt;br&gt;" style="text;html=1;strokeColor=none;fillColor=none;align=center;verticalAlign=middle;whiteSpace=wrap;rounded=0;" parent="Ac6H3vPhmwQ5J9NAEgWj-3" vertex="1">
          <mxGeometry x="-5" y="40" width="40" height="20" as="geometry" />
        </mxCell>
        <mxCell id="Ac6H3vPhmwQ5J9NAEgWj-25" value="" style="html=1;points=[];perimeter=orthogonalPerimeter;" parent="Ac6H3vPhmwQ5J9NAEgWj-3" vertex="1">
          <mxGeometry x="13" y="80" width="10" height="270" as="geometry" />
        </mxCell>
        <mxCell id="Ac6H3vPhmwQ5J9NAEgWj-12" value=":GUISystem" style="shape=umlLifeline;perimeter=lifelinePerimeter;whiteSpace=wrap;html=1;container=1;collapsible=0;recursiveResize=0;outlineConnect=0;" parent="1" vertex="1">
          <mxGeometry x="220" y="80" width="100" height="460" as="geometry" />
        </mxCell>
        <mxCell id="Ac6H3vPhmwQ5J9NAEgWj-29" value="" style="html=1;points=[];perimeter=orthogonalPerimeter;" parent="Ac6H3vPhmwQ5J9NAEgWj-12" vertex="1">
          <mxGeometry x="45" y="100" width="10" height="240" as="geometry" />
        </mxCell>
        <mxCell id="Ac6H3vPhmwQ5J9NAEgWj-21" value=":Order&amp;nbsp;" style="shape=umlLifeline;perimeter=lifelinePerimeter;whiteSpace=wrap;html=1;container=1;collapsible=0;recursiveResize=0;outlineConnect=0;" parent="1" vertex="1">
          <mxGeometry x="390" y="80" width="100" height="450" as="geometry" />
        </mxCell>
        <mxCell id="Ac6H3vPhmwQ5J9NAEgWj-32" value="" style="html=1;points=[];perimeter=orthogonalPerimeter;" parent="Ac6H3vPhmwQ5J9NAEgWj-21" vertex="1">
          <mxGeometry x="45" y="130" width="10" height="190" as="geometry" />
        </mxCell>
        <mxCell id="Ac6H3vPhmwQ5J9NAEgWj-22" value=":Database&lt;br&gt;" style="shape=umlLifeline;perimeter=lifelinePerimeter;whiteSpace=wrap;html=1;container=1;collapsible=0;recursiveResize=0;outlineConnect=0;" parent="1" vertex="1">
          <mxGeometry x="610" y="80" width="100" height="430" as="geometry" />
        </mxCell>
        <mxCell id="Ac6H3vPhmwQ5J9NAEgWj-36" value="" style="html=1;points=[];perimeter=orthogonalPerimeter;" parent="Ac6H3vPhmwQ5J9NAEgWj-22" vertex="1">
          <mxGeometry x="45" y="200" width="10" height="90" as="geometry" />
        </mxCell>
        <mxCell id="Ac6H3vPhmwQ5J9NAEgWj-28" value="Gửi yêu cầu thống kê doanh thu" style="html=1;verticalAlign=bottom;endArrow=block;" parent="1" target="Ac6H3vPhmwQ5J9NAEgWj-12" edge="1">
          <mxGeometry width="80" relative="1" as="geometry">
            <mxPoint x="100" y="180" as="sourcePoint" />
            <mxPoint x="180" y="180" as="targetPoint" />
          </mxGeometry>
        </mxCell>
        <mxCell id="Ac6H3vPhmwQ5J9NAEgWj-31" value="Gửi thông tin thống kê" style="html=1;verticalAlign=bottom;endArrow=block;" parent="1" target="Ac6H3vPhmwQ5J9NAEgWj-21" edge="1">
          <mxGeometry width="80" relative="1" as="geometry">
            <mxPoint x="280" y="210" as="sourcePoint" />
            <mxPoint x="360" y="210" as="targetPoint" />
          </mxGeometry>
        </mxCell>
        <mxCell id="Ac6H3vPhmwQ5J9NAEgWj-33" value="Gửi yêu cầu lấy các thông tin cần thống kê" style="html=1;verticalAlign=bottom;endArrow=block;" parent="1" target="Ac6H3vPhmwQ5J9NAEgWj-22" edge="1">
          <mxGeometry width="80" relative="1" as="geometry">
            <mxPoint x="450" y="280" as="sourcePoint" />
            <mxPoint x="530" y="280" as="targetPoint" />
          </mxGeometry>
        </mxCell>
        <mxCell id="Ac6H3vPhmwQ5J9NAEgWj-37" value="Thống kê thành công" style="html=1;verticalAlign=bottom;endArrow=open;dashed=1;endSize=8;" parent="1" source="Ac6H3vPhmwQ5J9NAEgWj-22" edge="1">
          <mxGeometry relative="1" as="geometry">
            <mxPoint x="520" y="320" as="sourcePoint" />
            <mxPoint x="440" y="320" as="targetPoint" />
          </mxGeometry>
        </mxCell>
        <mxCell id="Ac6H3vPhmwQ5J9NAEgWj-38" value="Đưa dữ liệu ra" style="html=1;verticalAlign=bottom;endArrow=open;dashed=1;endSize=8;" parent="1" source="Ac6H3vPhmwQ5J9NAEgWj-21" edge="1">
          <mxGeometry x="0.1223" y="-10" relative="1" as="geometry">
            <mxPoint x="360" y="330" as="sourcePoint" />
            <mxPoint x="280" y="330" as="targetPoint" />
            <mxPoint x="1" as="offset" />
          </mxGeometry>
        </mxCell>
        <mxCell id="Ac6H3vPhmwQ5J9NAEgWj-43" value="Thống kê thành công" style="html=1;verticalAlign=bottom;endArrow=open;dashed=1;endSize=8;" parent="1" source="Ac6H3vPhmwQ5J9NAEgWj-12" edge="1">
          <mxGeometry x="-0.0031" relative="1" as="geometry">
            <mxPoint x="190" y="390" as="sourcePoint" />
            <mxPoint x="110" y="390" as="targetPoint" />
            <Array as="points">
              <mxPoint x="190" y="390" />
            </Array>
            <mxPoint x="1" as="offset" />
          </mxGeometry>
        </mxCell>
      </root>
    </mxGraphModel>
  </diagram>
</mxfile>
